<?xml version="1.0" encoding="UTF-8"?>
<svg xmlns="http://www.w3.org/2000/svg" viewBox="0 0 1800 920" width="1800" height="920" font-family="Helvetica, Arial, sans-serif">
  <defs>
    <marker id="arrow-red" viewBox="0 0 10 10" refX="9" refY="5" markerWidth="8" markerHeight="8" orient="auto-start-reverse"><path d="M 0 0 L 10 5 L 0 10 z" fill="#b91c1c"/></marker>
  </defs>

  <rect width="1800" height="920" fill="#fafaf9"/>

  <!-- ──────── title ──────── -->
  <text x="900" y="60"  text-anchor="middle" font-size="34" font-weight="700" fill="#1e293b">eks-agent-platform</text>
  <text x="900" y="100" text-anchor="middle" font-size="16" fill="#475569">Tenant CRs → six reconcilers → per-tenant IAM / KMS / S3 / agentgateway / kagent / KEDA / budget / eval</text>

  <!-- ──────── AWS account (left) ──────── -->
  <rect x="60"  y="140" width="480" height="740" rx="16" ry="16" fill="#fff4e6" stroke="#d97706" stroke-width="2"/>
  <text x="300" y="170" text-anchor="middle" font-size="20" font-weight="600" fill="#92400e">AWS account</text>

  <g font-size="14" fill="#1e293b">
    <rect x="80"  y="195" width="440" height="72" rx="8" fill="#ffffff" stroke="#92400e"/>
    <text x="92"  y="220" font-size="15" font-weight="600">agent-iam</text>
    <text x="92"  y="244">operator IRSA + tenant role factory</text>

    <rect x="80"  y="285" width="440" height="72" rx="8" fill="#ffffff" stroke="#92400e"/>
    <text x="92"  y="310" font-size="15" font-weight="600">Bedrock + Guardrails</text>
    <text x="92"  y="334">invocation logging → CloudWatch + S3</text>

    <rect x="80"  y="375" width="440" height="72" rx="8" fill="#ffffff" stroke="#92400e"/>
    <text x="92"  y="400" font-size="15" font-weight="600">model-artifacts  (S3 + KMS)</text>
    <text x="92"  y="424">cmk-data grants · artifacts · eval-reports</text>

    <rect x="80"  y="465" width="440" height="72" rx="8" fill="#ffffff" stroke="#92400e"/>
    <text x="92"  y="490" font-size="15" font-weight="600">cost-pipeline</text>
    <text x="92"  y="514">CUR → Glue Crawler → Athena · invocation-cost λ</text>

    <rect x="80"  y="555" width="440" height="72" rx="8" fill="#fee2e2" stroke="#b91c1c"/>
    <text x="92"  y="580" font-size="15" font-weight="600" fill="#7f1d1d">kill-switch</text>
    <text x="92"  y="604" fill="#7f1d1d">EventBridge bus + Step Functions</text>

    <rect x="80"  y="645" width="440" height="60" rx="8" fill="#ffffff" stroke="#92400e"/>
    <text x="92"  y="670" font-size="13">eval-runtime IRSA · accelerator-pools · agent-egress</text>
    <text x="92"  y="690" font-size="13">(PrivateLink + WAF)</text>

    <text x="92"  y="745" font-size="11" fill="#92400e" font-weight="600">8 OpenTofu/Terragrunt components  ·  outputs to SSM /eks-agent-platform/&lt;env&gt;/</text>
    <text x="92"  y="765" font-size="11" fill="#92400e">Reads:  operator (right) reconciles IAM / KMS / S3 / Athena state</text>
    <text x="92"  y="785" font-size="11" fill="#92400e">Reads:  agentgateway (right) invokes Bedrock at runtime</text>
    <text x="92"  y="805" font-size="11" fill="#92400e">Writes: kill-switch tags tenant IAM on breach  →  operator detects (red loop)</text>
  </g>

  <!-- ──────── EKS cluster (middle) ──────── -->
  <rect x="580" y="140" width="660" height="740" rx="16" ry="16" fill="#dbeafe" stroke="#1d4ed8" stroke-width="2"/>
  <text x="910" y="170" text-anchor="middle" font-size="20" font-weight="600" fill="#1e3a8a">EKS cluster</text>

  <!-- Operator -->
  <rect x="600" y="195" width="620" height="130" rx="10" fill="#bfdbfe" stroke="#1d4ed8" stroke-width="2"/>
  <text x="620" y="222" font-size="18" font-weight="600" fill="#1e3a8a">Operator  (kubebuilder v4, one binary)</text>
  <text x="620" y="252" font-size="14" fill="#1e293b">tenant  ·  platform  ·  gateway  ·  runtime  ·  budget  ·  eval</text>
  <text x="620" y="276" font-size="13" fill="#1e293b">per-reconciler leader election  ·  --disable-aws for local-bench</text>
  <text x="620" y="298" font-size="13" fill="#1e293b">agentctl CLI ships in the same module</text>

  <!-- Addons strip -->
  <rect x="600" y="345" width="620" height="80" rx="10" fill="#cffafe" stroke="#0e7490"/>
  <text x="620" y="372" font-size="14" font-weight="600" fill="#0e7490">Upstream addons</text>
  <text x="620" y="402" font-size="14" fill="#1e293b">agentgateway  ·  kagent  ·  KEDA  ·  Argo Workflows + Rollouts</text>

  <!-- Tenant namespaces -->
  <rect x="600" y="445" width="620" height="280" rx="10" fill="#dcfce7" stroke="#15803d"/>
  <text x="620" y="472" font-size="14" font-weight="600" fill="#14532d">Tenant workload namespaces (one per Platform CR)</text>

  <g font-size="11" fill="#1e293b">
    <rect x="620" y="490" width="190" height="215" rx="8" fill="#ffffff" stroke="#15803d"/>
    <text x="632" y="512" font-size="12" font-weight="700">tenants-acme-support</text>
    <text x="632" y="540">SA + IRSA</text>
    <text x="632" y="558">NetworkPolicy</text>
    <text x="632" y="576">kagent Agents</text>
    <text x="632" y="594">KEDA-scaled pods</text>
    <text x="632" y="612">ResourceQuota</text>
    <text x="632" y="630">LimitRange</text>

    <rect x="820" y="490" width="190" height="215" rx="8" fill="#ffffff" stroke="#15803d"/>
    <text x="832" y="512" font-size="12" font-weight="700">tenants-acme-sales-ops</text>
    <text x="832" y="540">SA + IRSA</text>
    <text x="832" y="558">NetworkPolicy</text>
    <text x="832" y="576">kagent Agents</text>
    <text x="832" y="594">KEDA + SQS scaler</text>
    <text x="832" y="612">ResourceQuota</text>
    <text x="832" y="630">LimitRange</text>

    <rect x="1020" y="490" width="190" height="215" rx="8" fill="#ffffff" stroke="#15803d"/>
    <text x="1032" y="512" font-size="12" font-weight="700">tenants-idea-mesh</text>
    <text x="1032" y="540">SA + IRSA</text>
    <text x="1032" y="558">NetworkPolicy</text>
    <text x="1032" y="576">kagent Agents</text>
    <text x="1032" y="594">CPU scaler (min=0)</text>
    <text x="1032" y="612">ResourceQuota</text>
    <text x="1032" y="630">LimitRange</text>
  </g>

  <text x="620" y="745" font-size="12" fill="#1e3a8a" font-weight="600">8 CR kinds across 3 groups (*.nanohype.dev v1alpha1)</text>
  <text x="620" y="765" font-size="12" fill="#1e3a8a">Tenant (cluster)  →  Platform  →  ModelGateway / AgentFleet / BudgetPolicy / EvalSuite</text>
  <text x="620" y="785" font-size="12" fill="#1e3a8a">SLO + paging via PrometheusRule  ·  4 Grafana dashboards  ·  8 runbooks</text>
  <text x="620" y="810" font-size="11" fill="#1e3a8a">Receives:  CRs from personas (right) via  agentctl tenant init  |  kubectl apply</text>

  <!-- ──────── Personas (right) ──────── -->
  <rect x="1280" y="140" width="460" height="740" rx="16" ry="16" fill="#ebfbee" stroke="#15803d" stroke-width="2"/>
  <text x="1510" y="170" text-anchor="middle" font-size="20" font-weight="600" fill="#14532d">Your team (personas)</text>

  <g font-size="13" fill="#1e293b">
    <text x="1300" y="210" font-size="14" font-weight="700">sales-ops</text>
    <text x="1300" y="228">prospect research + lead enrichment</text>

    <text x="1300" y="262" font-size="14" font-weight="700">support</text>
    <text x="1300" y="280">ticket triage + escalation drafts</text>

    <text x="1300" y="314" font-size="14" font-weight="700">finance</text>
    <text x="1300" y="332">month-end close + anomaly review</text>

    <text x="1300" y="366" font-size="14" font-weight="700">ops</text>
    <text x="1300" y="384">incident summarization + postmortems</text>

    <text x="1300" y="418" font-size="14" font-weight="700">founder</text>
    <text x="1300" y="436">strategy sparring + market research</text>

    <text x="1300" y="470" font-size="14" font-weight="700">eng</text>
    <text x="1300" y="488">code review + design-doc sparring</text>

    <text x="1300" y="522" font-size="14" font-weight="700">marketing</text>
    <text x="1300" y="540">copy variants + image generation</text>

    <text x="1300" y="574" font-size="14" font-weight="700">legal</text>
    <text x="1300" y="592">contract review + clause flagging</text>
  </g>

  <text x="1300" y="650" font-size="12" font-weight="600" fill="#14532d">All onboard via:</text>
  <text x="1300" y="672" font-size="12" font-family="monospace" fill="#1e293b">agentctl tenant init NAME \</text>
  <text x="1300" y="690" font-size="12" font-family="monospace" fill="#1e293b">  --persona &lt;name&gt; | kubectl apply -f -</text>
  <text x="1300" y="730" font-size="12" fill="#14532d">Playbooks at docs/onboarding/&lt;persona&gt;.md</text>

  <!-- ──────── Arrows ──────── -->

  <!-- Only the kill-switch feedback loop gets an arrow. Every other
       column-to-column relationship is conveyed via title-bar text in
       the columns themselves — the spatial layout already implies
       'stuff flows between adjacent columns'. The kill-switch is the
       single non-obvious flow (AWS modifies its own IAM, operator
       detects on reconcile, operator suspends Platforms) — without
       the visual loop a reader can't tell the kill-switch closes
       back onto the operator.

       Dashed red curve. Starts at the right edge of the kill-switch
       box, curves up to the operator block. -->
  <path d="M 540 590 Q 568 450 600 305" fill="none" stroke="#b91c1c" stroke-width="2" stroke-dasharray="6 4" marker-end="url(#arrow-red)"/>
  <rect x="522" y="442" width="100" height="36" rx="3" fill="#ffffff" stroke="#b91c1c" stroke-width="1"/>
  <text x="572" y="458" font-size="11" font-weight="600" fill="#b91c1c" text-anchor="middle">kill-switch</text>
  <text x="572" y="472" font-size="10" fill="#b91c1c" text-anchor="middle">IAM tag → suspend</text>
</svg>
